<svg aria-hidden="true" style="position: absolute; width: 0; height: 0; overflow: hidden;" version="1.1" xmlns="http://www.w3.org/2000/svg" xmlns:xlink="http://www.w3.org/1999/xlink">
<defs>
<symbol id="icon-github" viewBox="0 0 31 32">
<path d="M15.673 0.327c-8.66 0-15.673 7.014-15.673 15.673 0 6.936 4.487 12.793 10.717 14.87 0.784 0.137 1.078-0.333 1.078-0.744 0-0.372-0.020-1.607-0.020-2.919-3.938 0.725-4.957-0.96-5.27-1.842-0.176-0.451-0.94-1.842-1.607-2.214-0.549-0.294-1.332-1.019-0.020-1.038 1.234-0.020 2.116 1.136 2.41 1.607 1.411 2.371 3.664 1.704 4.565 1.293 0.137-1.019 0.549-1.704 0.999-2.096-3.487-0.392-7.131-1.744-7.131-7.739 0-1.704 0.607-3.115 1.607-4.212-0.157-0.392-0.705-1.998 0.157-4.153 0 0 1.313-0.411 4.31 1.607 1.254-0.353 2.586-0.529 3.918-0.529s2.665 0.176 3.918 0.529c2.998-2.038 4.31-1.607 4.31-1.607 0.862 2.155 0.313 3.762 0.157 4.153 0.999 1.097 1.607 2.488 1.607 4.212 0 6.015-3.664 7.347-7.151 7.739 0.568 0.49 1.058 1.43 1.058 2.9 0 2.096-0.020 3.781-0.020 4.31 0 0.411 0.294 0.901 1.078 0.744 3.111-1.050 5.815-3.050 7.73-5.718s2.946-5.869 2.947-9.152c0-8.66-7.014-15.673-15.673-15.673z"></path>
</symbol>
<symbol id="icon-linkedin" viewBox="0 0 31 32">
<path d="M1.306 4.033v23.932c-0 0.315 0.062 0.628 0.182 0.919s0.297 0.556 0.52 0.779c0.223 0.223 0.488 0.4 0.779 0.521s0.604 0.183 0.919 0.183h23.932c0.316 0 0.628-0.062 0.92-0.183s0.556-0.298 0.78-0.521c0.223-0.223 0.4-0.488 0.521-0.78s0.182-0.604 0.182-0.92v-23.931c0-0.316-0.062-0.628-0.183-0.92s-0.298-0.556-0.521-0.779-0.488-0.4-0.78-0.52c-0.292-0.12-0.604-0.182-0.92-0.182h-23.931c-0.637 0-1.247 0.253-1.697 0.703s-0.703 1.061-0.703 1.697zM12.68 12.588h3.891v1.954c0.562-1.123 1.998-2.134 4.157-2.134 4.139 0 5.12 2.237 5.12 6.343v7.604h-4.189v-6.669c0-2.338-0.562-3.657-1.988-3.657-1.979 0-2.802 1.422-2.802 3.657v6.669h-4.19v-13.767zM5.496 26.176v-13.768h4.19v13.768h-4.19zM10.286 7.918c0.008 0.359-0.056 0.715-0.188 1.049s-0.329 0.638-0.58 0.894c-0.251 0.256-0.551 0.46-0.881 0.599s-0.686 0.211-1.045 0.211-0.714-0.072-1.045-0.211c-0.331-0.139-0.63-0.343-0.881-0.599s-0.448-0.561-0.58-0.894c-0.132-0.334-0.196-0.69-0.188-1.049 0.016-0.704 0.306-1.374 0.81-1.867s1.18-0.768 1.884-0.768c0.704 0 1.381 0.276 1.884 0.768s0.794 1.163 0.81 1.867z"></path>
</symbol>
<symbol id="icon-telegram" viewBox="0 0 31 32">
<path d="M31.347 16c0 8.656-7.018 15.673-15.673 15.673s-15.673-7.018-15.673-15.673c0-8.656 7.018-15.673 15.673-15.673s15.673 7.018 15.673 15.673zM16.235 11.897c-1.524 0.633-4.571 1.946-9.14 3.937-0.742 0.295-1.131 0.584-1.166 0.866-0.060 0.478 0.538 0.666 1.351 0.921 0.111 0.035 0.226 0.071 0.343 0.11 0.801 0.26 1.877 0.564 2.436 0.576 0.508 0.010 1.075-0.199 1.701-0.627 4.268-2.883 6.472-4.339 6.61-4.37 0.098-0.022 0.234-0.051 0.325 0.031 0.091 0.081 0.082 0.235 0.073 0.277-0.060 0.252-2.403 2.432-3.618 3.561-0.379 0.351-0.647 0.601-0.701 0.658-0.123 0.127-0.248 0.248-0.368 0.364-0.745 0.716-1.301 1.254 0.031 2.132 0.64 0.422 1.152 0.771 1.663 1.118 0.558 0.38 1.114 0.759 1.835 1.232 0.183 0.12 0.358 0.244 0.529 0.366 0.649 0.464 1.233 0.879 1.954 0.814 0.418-0.039 0.852-0.432 1.071-1.607 0.519-2.777 1.54-8.79 1.776-11.269 0.014-0.206 0.006-0.413-0.026-0.617-0.019-0.165-0.099-0.316-0.225-0.425-0.187-0.153-0.477-0.185-0.607-0.183-0.589 0.010-1.493 0.325-5.846 2.136z"></path>
</symbol>
<symbol id="icon-instagram" viewBox="0 0 32 32">
<path d="M16.003 0c-4.346 0-4.893 0.018-6.599 0.096-1.402 0.029-2.733 0.3-3.963 0.772l0.080-0.027c-1.109 0.422-2.055 1.049-2.832 1.842l-0.001 0.001c-0.794 0.78-1.422 1.725-1.831 2.78l-0.018 0.054c-0.445 1.151-0.715 2.483-0.742 3.874l-0 0.012c-0.076 1.706-0.096 2.25-0.096 6.596s0.018 4.888 0.096 6.596c0.029 1.402 0.3 2.733 0.772 3.963l-0.027-0.080c0.424 1.109 1.051 2.054 1.843 2.832l0.001 0.001c0.779 0.795 1.724 1.423 2.78 1.831l0.054 0.018c1.151 0.444 2.483 0.714 3.873 0.742l0.012 0c1.706 0.078 2.25 0.096 6.596 0.096s4.888-0.018 6.596-0.096c1.403-0.029 2.734-0.298 3.966-0.769l-0.081 0.027c2.158-0.853 3.835-2.529 4.668-4.632l0.019-0.056c0.442-1.15 0.713-2.48 0.745-3.869l0-0.014c0.076-1.706 0.096-2.25 0.096-6.596s-0.021-4.891-0.096-6.596c-0.032-1.404-0.303-2.734-0.772-3.967l0.027 0.082c-0.424-1.109-1.052-2.054-1.845-2.832l-0.001-0.001c-0.778-0.795-1.724-1.423-2.78-1.826l-0.053-0.018c-1.155-0.444-2.49-0.713-3.885-0.739l-0.011-0c-1.708-0.078-2.25-0.096-6.596-0.096zM14.565 2.883h1.438c4.271 0 4.776 0.016 6.464 0.094 1.070 0.013 2.090 0.213 3.032 0.57l-0.061-0.020c0.721 0.271 1.335 0.679 1.837 1.197l0.001 0.001c0.518 0.504 0.926 1.118 1.186 1.804l0.011 0.034c0.337 0.882 0.537 1.901 0.549 2.966l0 0.005c0.078 1.685 0.094 2.193 0.094 6.464s-0.016 4.776-0.094 6.464c-0.012 1.069-0.213 2.088-0.57 3.029l0.020-0.061c-0.551 1.398-1.638 2.484-3.001 3.021l-0.036 0.012c-0.882 0.339-1.901 0.541-2.966 0.552l-0.005 0c-1.685 0.078-2.193 0.094-6.464 0.094s-4.779-0.016-6.466-0.094c-1.070-0.013-2.090-0.215-3.032-0.572l0.061 0.020c-0.722-0.27-1.337-0.677-1.84-1.194l-0.001-0.001c-0.518-0.503-0.925-1.118-1.184-1.804l-0.011-0.034c-0.337-0.882-0.539-1.901-0.552-2.966l-0-0.006c-0.076-1.688-0.091-2.193-0.091-6.466s0.016-4.776 0.091-6.464c0.012-1.070 0.213-2.090 0.572-3.032l-0.020 0.060c0.27-0.721 0.677-1.335 1.194-1.837l0.001-0.001c0.505-0.518 1.119-0.926 1.807-1.187l0.034-0.011c0.882-0.336 1.901-0.537 2.965-0.552l0.006-0c1.477-0.065 2.047-0.086 5.029-0.089zM24.542 5.539c-1.061 0-1.922 0.86-1.922 1.922s0.86 1.922 1.922 1.922c1.061 0 1.922-0.86 1.922-1.922 0-0.001 0-0.002 0-0.003v0c0 0 0 0 0 0 0-1.060-0.859-1.919-1.919-1.919-0.001 0-0.002 0-0.003 0h0zM16.003 7.784c-4.538 0-8.216 3.679-8.216 8.216s3.678 8.216 8.216 8.216c4.538 0 8.216-3.678 8.216-8.216v0c-0.002-4.537-3.679-8.215-8.216-8.216h-0zM16.003 10.667c0.002 0 0.005 0 0.008 0 2.946 0 5.333 2.388 5.333 5.333s-2.388 5.333-5.333 5.333c-2.946 0-5.333-2.388-5.333-5.333v0c0.006-2.938 2.387-5.318 5.325-5.323h0z"></path>
</symbol>
<symbol id="icon-webstudio" viewBox="0 0 230 32">
<path  d="M13.187 0.947h5.325l3.37 9.776 3.411-9.776h5.283l-5.075 13.437 3.744 9.402 8.362-22.922h6.24l-11.814 29.536h-4.95l-5.2-12.397-5.158 12.397h-4.95l-11.773-29.536h6.157l8.403 22.922 3.661-9.402-5.034-13.437zM54.763 30.816c-1.747 0-3.328-0.291-4.742-0.874-1.414-0.61-2.621-1.428-3.619-2.454-0.998-1.054-1.775-2.246-2.33-3.578-0.527-1.359-0.79-2.787-0.79-4.285 0-2.080 0.458-3.98 1.373-5.699 0.943-1.719 2.274-3.092 3.994-4.118 1.747-1.054 3.799-1.581 6.157-1.581 2.385 0 4.423 0.527 6.115 1.581 1.692 1.026 2.981 2.399 3.869 4.118 0.915 1.692 1.373 3.522 1.373 5.491 0 0.333-0.014 0.68-0.042 1.040-0.028 0.333-0.056 0.61-0.083 0.832h-16.848c0.111 1.109 0.43 2.080 0.957 2.912 0.555 0.832 1.248 1.47 2.080 1.914 0.86 0.416 1.775 0.624 2.746 0.624 1.109 0 2.149-0.264 3.12-0.79 0.998-0.555 1.678-1.276 2.038-2.163l4.784 1.331c-0.527 1.109-1.29 2.094-2.288 2.954-0.971 0.86-2.122 1.539-3.453 2.038-1.331 0.472-2.801 0.707-4.41 0.707zM49.064 17.754h11.398c-0.111-1.109-0.43-2.066-0.957-2.87-0.499-0.832-1.165-1.47-1.997-1.914-0.832-0.471-1.761-0.707-2.787-0.707-0.998 0-1.914 0.236-2.746 0.707-0.804 0.444-1.47 1.082-1.997 1.914-0.499 0.804-0.804 1.761-0.915 2.87zM83.202 30.816c-1.664 0-3.148-0.374-4.451-1.123s-2.33-1.775-3.078-3.078v3.786h-4.867v-30.368h5.574v12.397c0.777-1.303 1.789-2.33 3.037-3.078 1.276-0.749 2.76-1.123 4.451-1.123 1.414 0 2.704 0.305 3.869 0.915 1.165 0.582 2.163 1.401 2.995 2.454 0.86 1.054 1.512 2.26 1.955 3.619 0.472 1.359 0.707 2.815 0.707 4.368s-0.263 3.009-0.79 4.368c-0.499 1.359-1.206 2.565-2.122 3.619-0.915 1.026-1.997 1.83-3.245 2.413-1.22 0.555-2.565 0.832-4.035 0.832zM81.663 26.074c0.888 0 1.692-0.166 2.413-0.499 0.749-0.36 1.387-0.832 1.914-1.414 0.555-0.582 0.971-1.262 1.248-2.038 0.305-0.804 0.458-1.636 0.458-2.496 0-1.192-0.25-2.288-0.749-3.286-0.471-1.026-1.137-1.844-1.997-2.454-0.832-0.61-1.816-0.915-2.954-0.915-0.804 0-1.581 0.194-2.33 0.582-0.721 0.361-1.373 0.86-1.955 1.498-0.555 0.638-0.998 1.359-1.331 2.163v5.2c0.166 0.555 0.43 1.054 0.79 1.498 0.388 0.444 0.832 0.832 1.331 1.165 0.499 0.305 1.012 0.555 1.539 0.749 0.555 0.166 1.096 0.25 1.622 0.25z"></path>
<path  d="M116.557 8.602c-0.194-0.194-0.555-0.458-1.082-0.79-0.499-0.333-1.123-0.652-1.872-0.957-0.721-0.305-1.511-0.569-2.371-0.79-0.86-0.25-1.733-0.374-2.621-0.374-1.553 0-2.732 0.291-3.536 0.874-0.776 0.582-1.165 1.401-1.165 2.454 0 0.804 0.25 1.442 0.749 1.914s1.248 0.874 2.246 1.206c0.998 0.333 2.246 0.693 3.744 1.082 1.941 0.471 3.619 1.054 5.034 1.747 1.442 0.666 2.538 1.553 3.286 2.662 0.777 1.082 1.165 2.524 1.165 4.326 0 1.581-0.291 2.94-0.874 4.077-0.582 1.109-1.387 2.011-2.413 2.704s-2.191 1.206-3.494 1.539c-1.303 0.305-2.69 0.458-4.16 0.458s-2.94-0.152-4.41-0.458c-1.47-0.305-2.884-0.735-4.243-1.29-1.359-0.582-2.607-1.276-3.744-2.080l2.538-4.95c0.25 0.25 0.693 0.582 1.331 0.998 0.638 0.388 1.414 0.79 2.33 1.206 0.915 0.388 1.914 0.721 2.995 0.998s2.177 0.416 3.286 0.416c1.553 0 2.732-0.264 3.536-0.79s1.206-1.276 1.206-2.246c0-0.888-0.319-1.581-0.957-2.080s-1.525-0.929-2.662-1.29c-1.137-0.388-2.482-0.804-4.035-1.248-1.858-0.527-3.411-1.109-4.659-1.747-1.248-0.666-2.177-1.498-2.787-2.496s-0.915-2.246-0.915-3.744c0-2.025 0.472-3.716 1.414-5.075 0.971-1.387 2.274-2.427 3.91-3.12 1.636-0.721 3.453-1.082 5.45-1.082 1.387 0 2.69 0.153 3.91 0.458 1.248 0.305 2.413 0.707 3.494 1.206s2.052 1.040 2.912 1.622l-2.538 4.659zM137.755 29.277c-0.472 0.194-1.040 0.416-1.706 0.666s-1.387 0.444-2.163 0.582c-0.749 0.166-1.512 0.25-2.288 0.25-1.026 0-1.969-0.18-2.829-0.541s-1.553-0.929-2.080-1.706c-0.499-0.804-0.749-1.844-0.749-3.12v-12.522h-2.87v-4.285h2.87v-7.072h5.574v7.072h4.576v4.285h-4.576v10.65c0.028 0.749 0.236 1.29 0.624 1.622s0.874 0.499 1.456 0.499 1.151-0.097 1.706-0.291c0.555-0.194 0.998-0.36 1.331-0.499l1.123 4.41zM141.698 22.246v-13.645h5.574v12.438c0 1.664 0.305 2.926 0.915 3.786 0.61 0.832 1.511 1.248 2.704 1.248 0.721 0 1.428-0.139 2.122-0.416 0.721-0.305 1.373-0.749 1.955-1.331 0.61-0.582 1.123-1.317 1.539-2.205v-13.52h5.574v15.558c0 0.582 0.098 0.998 0.291 1.248 0.222 0.25 0.568 0.402 1.040 0.458v4.534c-0.555 0.083-1.026 0.139-1.414 0.166-0.36 0.056-0.693 0.083-0.998 0.083-0.998 0-1.816-0.222-2.454-0.666-0.61-0.472-0.971-1.109-1.082-1.914l-0.125-1.747c-0.971 1.47-2.219 2.593-3.744 3.37-1.525 0.749-3.203 1.123-5.034 1.123-2.246 0-3.952-0.721-5.117-2.163-1.165-1.47-1.747-3.605-1.747-6.406zM167.538 19.501c0-2.108 0.416-4.007 1.248-5.699 0.832-1.719 1.984-3.078 3.453-4.077 1.47-0.998 3.149-1.498 5.034-1.498 1.61 0 3.051 0.402 4.326 1.206 1.304 0.777 2.317 1.775 3.037 2.995v-12.397h5.574v24.128c0 0.582 0.098 0.998 0.291 1.248 0.195 0.25 0.528 0.402 0.998 0.458v4.534c-0.97 0.194-1.76 0.291-2.371 0.291-0.998 0-1.83-0.25-2.496-0.749-0.637-0.499-0.998-1.151-1.082-1.955l-0.083-1.373c-0.803 1.359-1.899 2.399-3.286 3.12-1.358 0.721-2.787 1.082-4.285 1.082s-2.883-0.291-4.16-0.874c-1.248-0.582-2.342-1.387-3.286-2.413-0.915-1.026-1.635-2.219-2.163-3.578-0.499-1.387-0.749-2.87-0.749-4.451zM184.635 22.413v-5.2c-0.277-0.804-0.72-1.525-1.331-2.163-0.61-0.638-1.29-1.137-2.038-1.498-0.749-0.388-1.498-0.582-2.246-0.582-0.859 0-1.635 0.18-2.33 0.541-0.693 0.361-1.302 0.846-1.83 1.456-0.499 0.61-0.886 1.317-1.165 2.122-0.25 0.804-0.374 1.65-0.374 2.538s0.139 1.733 0.416 2.538c0.306 0.776 0.736 1.456 1.29 2.038 0.555 0.582 1.194 1.040 1.914 1.373 0.749 0.333 1.554 0.499 2.413 0.499 0.528 0 1.054-0.083 1.581-0.25 0.555-0.194 1.069-0.444 1.539-0.749 0.499-0.333 0.93-0.721 1.29-1.165 0.389-0.472 0.68-0.971 0.874-1.498zM196.93 30.4v-21.798h5.574v21.798h-5.574zM196.93 5.565v-5.533h5.574v5.533h-5.574zM218.848 30.816c-1.774 0-3.37-0.291-4.784-0.874-1.414-0.61-2.621-1.442-3.619-2.496-0.971-1.054-1.72-2.26-2.246-3.619s-0.79-2.787-0.79-4.285c0-1.525 0.264-2.968 0.79-4.326s1.275-2.565 2.246-3.619c0.998-1.054 2.205-1.872 3.619-2.454 1.414-0.61 3.010-0.915 4.784-0.915s3.355 0.305 4.742 0.915c1.414 0.582 2.621 1.401 3.619 2.454s1.747 2.26 2.246 3.619c0.526 1.359 0.79 2.801 0.79 4.326 0 1.498-0.264 2.926-0.79 4.285-0.499 1.359-1.248 2.565-2.246 3.619-0.971 1.054-2.163 1.886-3.578 2.496-1.414 0.582-3.010 0.874-4.784 0.874zM213.149 19.542c0 1.276 0.25 2.413 0.749 3.411 0.499 0.971 1.179 1.733 2.038 2.288s1.83 0.832 2.912 0.832c1.054 0 2.011-0.277 2.87-0.832 0.859-0.582 1.539-1.359 2.038-2.33 0.526-0.998 0.79-2.136 0.79-3.411 0-1.248-0.264-2.371-0.79-3.37-0.499-0.998-1.179-1.775-2.038-2.33s-1.816-0.832-2.87-0.832c-1.082 0-2.053 0.291-2.912 0.874-0.859 0.555-1.539 1.331-2.038 2.33-0.499 0.971-0.749 2.094-0.749 3.37z"></path>
</symbol>
</defs>
</svg>
