<svg aria-hidden="true" style="position: absolute; width: 0; height: 0; overflow: hidden;" version="1.1" xmlns="http://www.w3.org/2000/svg" xmlns:xlink="http://www.w3.org/1999/xlink">
<defs>
<symbol id="icon-github" viewBox="0 0 31 32">
<path d="M15.673 0.327c-8.66 0-15.673 7.014-15.673 15.673 0 6.936 4.487 12.793 10.717 14.87 0.784 0.137 1.078-0.333 1.078-0.744 0-0.372-0.020-1.607-0.020-2.919-3.938 0.725-4.957-0.96-5.27-1.842-0.176-0.451-0.94-1.842-1.607-2.214-0.549-0.294-1.332-1.019-0.020-1.038 1.234-0.020 2.116 1.136 2.41 1.607 1.411 2.371 3.664 1.704 4.565 1.293 0.137-1.019 0.549-1.704 0.999-2.096-3.487-0.392-7.131-1.744-7.131-7.739 0-1.704 0.607-3.115 1.607-4.212-0.157-0.392-0.705-1.998 0.157-4.153 0 0 1.313-0.411 4.31 1.607 1.254-0.353 2.586-0.529 3.918-0.529s2.665 0.176 3.918 0.529c2.998-2.038 4.31-1.607 4.31-1.607 0.862 2.155 0.313 3.762 0.157 4.153 0.999 1.097 1.607 2.488 1.607 4.212 0 6.015-3.664 7.347-7.151 7.739 0.568 0.49 1.058 1.43 1.058 2.9 0 2.096-0.020 3.781-0.020 4.31 0 0.411 0.294 0.901 1.078 0.744 3.111-1.050 5.815-3.050 7.73-5.718s2.946-5.869 2.947-9.152c0-8.66-7.014-15.673-15.673-15.673z"></path>
</symbol>
<symbol id="icon-linkedin" viewBox="0 0 31 32">
<path d="M1.306 4.033v23.932c-0 0.315 0.062 0.628 0.182 0.919s0.297 0.556 0.52 0.779c0.223 0.223 0.488 0.4 0.779 0.521s0.604 0.183 0.919 0.183h23.932c0.316 0 0.628-0.062 0.92-0.183s0.556-0.298 0.78-0.521c0.223-0.223 0.4-0.488 0.521-0.78s0.182-0.604 0.182-0.92v-23.931c0-0.316-0.062-0.628-0.183-0.92s-0.298-0.556-0.521-0.779-0.488-0.4-0.78-0.52c-0.292-0.12-0.604-0.182-0.92-0.182h-23.931c-0.637 0-1.247 0.253-1.697 0.703s-0.703 1.061-0.703 1.697zM12.68 12.588h3.891v1.954c0.562-1.123 1.998-2.134 4.157-2.134 4.139 0 5.12 2.237 5.12 6.343v7.604h-4.189v-6.669c0-2.338-0.562-3.657-1.988-3.657-1.979 0-2.802 1.422-2.802 3.657v6.669h-4.19v-13.767zM5.496 26.176v-13.768h4.19v13.768h-4.19zM10.286 7.918c0.008 0.359-0.056 0.715-0.188 1.049s-0.329 0.638-0.58 0.894c-0.251 0.256-0.551 0.46-0.881 0.599s-0.686 0.211-1.045 0.211-0.714-0.072-1.045-0.211c-0.331-0.139-0.63-0.343-0.881-0.599s-0.448-0.561-0.58-0.894c-0.132-0.334-0.196-0.69-0.188-1.049 0.016-0.704 0.306-1.374 0.81-1.867s1.18-0.768 1.884-0.768c0.704 0 1.381 0.276 1.884 0.768s0.794 1.163 0.81 1.867z"></path>
</symbol>
<symbol id="icon-telegram" viewBox="0 0 31 32">
<path d="M31.347 16c0 8.656-7.018 15.673-15.673 15.673s-15.673-7.018-15.673-15.673c0-8.656 7.018-15.673 15.673-15.673s15.673 7.018 15.673 15.673zM16.235 11.897c-1.524 0.633-4.571 1.946-9.14 3.937-0.742 0.295-1.131 0.584-1.166 0.866-0.060 0.478 0.538 0.666 1.351 0.921 0.111 0.035 0.226 0.071 0.343 0.11 0.801 0.26 1.877 0.564 2.436 0.576 0.508 0.010 1.075-0.199 1.701-0.627 4.268-2.883 6.472-4.339 6.61-4.37 0.098-0.022 0.234-0.051 0.325 0.031 0.091 0.081 0.082 0.235 0.073 0.277-0.060 0.252-2.403 2.432-3.618 3.561-0.379 0.351-0.647 0.601-0.701 0.658-0.123 0.127-0.248 0.248-0.368 0.364-0.745 0.716-1.301 1.254 0.031 2.132 0.64 0.422 1.152 0.771 1.663 1.118 0.558 0.38 1.114 0.759 1.835 1.232 0.183 0.12 0.358 0.244 0.529 0.366 0.649 0.464 1.233 0.879 1.954 0.814 0.418-0.039 0.852-0.432 1.071-1.607 0.519-2.777 1.54-8.79 1.776-11.269 0.014-0.206 0.006-0.413-0.026-0.617-0.019-0.165-0.099-0.316-0.225-0.425-0.187-0.153-0.477-0.185-0.607-0.183-0.589 0.010-1.493 0.325-5.846 2.136z"></path>
</symbol>
<symbol id="icon-instagram" viewBox="0 0 32 32">
<path d="M16.003 0c-4.346 0-4.893 0.018-6.599 0.096-1.402 0.029-2.733 0.3-3.963 0.772l0.080-0.027c-1.109 0.422-2.055 1.049-2.832 1.842l-0.001 0.001c-0.794 0.78-1.422 1.725-1.831 2.78l-0.018 0.054c-0.445 1.151-0.715 2.483-0.742 3.874l-0 0.012c-0.076 1.706-0.096 2.25-0.096 6.596s0.018 4.888 0.096 6.596c0.029 1.402 0.3 2.733 0.772 3.963l-0.027-0.080c0.424 1.109 1.051 2.054 1.843 2.832l0.001 0.001c0.779 0.795 1.724 1.423 2.78 1.831l0.054 0.018c1.151 0.444 2.483 0.714 3.873 0.742l0.012 0c1.706 0.078 2.25 0.096 6.596 0.096s4.888-0.018 6.596-0.096c1.403-0.029 2.734-0.298 3.966-0.769l-0.081 0.027c2.158-0.853 3.835-2.529 4.668-4.632l0.019-0.056c0.442-1.15 0.713-2.48 0.745-3.869l0-0.014c0.076-1.706 0.096-2.25 0.096-6.596s-0.021-4.891-0.096-6.596c-0.032-1.404-0.303-2.734-0.772-3.967l0.027 0.082c-0.424-1.109-1.052-2.054-1.845-2.832l-0.001-0.001c-0.778-0.795-1.724-1.423-2.78-1.826l-0.053-0.018c-1.155-0.444-2.49-0.713-3.885-0.739l-0.011-0c-1.708-0.078-2.25-0.096-6.596-0.096zM14.565 2.883h1.438c4.271 0 4.776 0.016 6.464 0.094 1.070 0.013 2.090 0.213 3.032 0.57l-0.061-0.020c0.721 0.271 1.335 0.679 1.837 1.197l0.001 0.001c0.518 0.504 0.926 1.118 1.186 1.804l0.011 0.034c0.337 0.882 0.537 1.901 0.549 2.966l0 0.005c0.078 1.685 0.094 2.193 0.094 6.464s-0.016 4.776-0.094 6.464c-0.012 1.069-0.213 2.088-0.57 3.029l0.020-0.061c-0.551 1.398-1.638 2.484-3.001 3.021l-0.036 0.012c-0.882 0.339-1.901 0.541-2.966 0.552l-0.005 0c-1.685 0.078-2.193 0.094-6.464 0.094s-4.779-0.016-6.466-0.094c-1.070-0.013-2.090-0.215-3.032-0.572l0.061 0.020c-0.722-0.27-1.337-0.677-1.84-1.194l-0.001-0.001c-0.518-0.503-0.925-1.118-1.184-1.804l-0.011-0.034c-0.337-0.882-0.539-1.901-0.552-2.966l-0-0.006c-0.076-1.688-0.091-2.193-0.091-6.466s0.016-4.776 0.091-6.464c0.012-1.070 0.213-2.090 0.572-3.032l-0.020 0.060c0.27-0.721 0.677-1.335 1.194-1.837l0.001-0.001c0.505-0.518 1.119-0.926 1.807-1.187l0.034-0.011c0.882-0.336 1.901-0.537 2.965-0.552l0.006-0c1.477-0.065 2.047-0.086 5.029-0.089zM24.542 5.539c-1.061 0-1.922 0.86-1.922 1.922s0.86 1.922 1.922 1.922c1.061 0 1.922-0.86 1.922-1.922 0-0.001 0-0.002 0-0.003v0c0 0 0 0 0 0 0-1.060-0.859-1.919-1.919-1.919-0.001 0-0.002 0-0.003 0h0zM16.003 7.784c-4.538 0-8.216 3.679-8.216 8.216s3.678 8.216 8.216 8.216c4.538 0 8.216-3.678 8.216-8.216v0c-0.002-4.537-3.679-8.215-8.216-8.216h-0zM16.003 10.667c0.002 0 0.005 0 0.008 0 2.946 0 5.333 2.388 5.333 5.333s-2.388 5.333-5.333 5.333c-2.946 0-5.333-2.388-5.333-5.333v0c0.006-2.938 2.387-5.318 5.325-5.323h0z"></path>
</symbol>
</defs>
</svg>
