<svg aria-hidden="true" style="position: absolute; width: 0; height: 0; overflow: hidden;" version="1.1" xmlns="http://www.w3.org/2000/svg" xmlns:xlink="http://www.w3.org/1999/xlink">
<defs>
<symbol id="icon-github" viewBox="0 0 31 32">
<path d="M15.673 0.327c-8.66 0-15.673 7.014-15.673 15.673 0 6.936 4.487 12.793 10.717 14.87 0.784 0.137 1.078-0.333 1.078-0.744 0-0.372-0.020-1.607-0.020-2.919-3.938 0.725-4.957-0.96-5.27-1.842-0.176-0.451-0.94-1.842-1.607-2.214-0.549-0.294-1.332-1.019-0.020-1.038 1.234-0.020 2.116 1.136 2.41 1.607 1.411 2.371 3.664 1.704 4.565 1.293 0.137-1.019 0.549-1.704 0.999-2.096-3.487-0.392-7.131-1.744-7.131-7.739 0-1.704 0.607-3.115 1.607-4.212-0.157-0.392-0.705-1.998 0.157-4.153 0 0 1.313-0.411 4.31 1.607 1.254-0.353 2.586-0.529 3.918-0.529s2.665 0.176 3.918 0.529c2.998-2.038 4.31-1.607 4.31-1.607 0.862 2.155 0.313 3.762 0.157 4.153 0.999 1.097 1.607 2.488 1.607 4.212 0 6.015-3.664 7.347-7.151 7.739 0.568 0.49 1.058 1.43 1.058 2.9 0 2.096-0.020 3.781-0.020 4.31 0 0.411 0.294 0.901 1.078 0.744 3.111-1.050 5.815-3.050 7.73-5.718s2.946-5.869 2.947-9.152c0-8.66-7.014-15.673-15.673-15.673z"></path>
</symbol>
<symbol id="icon-linkedin" viewBox="0 0 31 32">
<path d="M1.306 4.033v23.932c-0 0.315 0.062 0.628 0.182 0.919s0.297 0.556 0.52 0.779c0.223 0.223 0.488 0.4 0.779 0.521s0.604 0.183 0.919 0.183h23.932c0.316 0 0.628-0.062 0.92-0.183s0.556-0.298 0.78-0.521c0.223-0.223 0.4-0.488 0.521-0.78s0.182-0.604 0.182-0.92v-23.931c0-0.316-0.062-0.628-0.183-0.92s-0.298-0.556-0.521-0.779-0.488-0.4-0.78-0.52c-0.292-0.12-0.604-0.182-0.92-0.182h-23.931c-0.637 0-1.247 0.253-1.697 0.703s-0.703 1.061-0.703 1.697zM12.68 12.588h3.891v1.954c0.562-1.123 1.998-2.134 4.157-2.134 4.139 0 5.12 2.237 5.12 6.343v7.604h-4.189v-6.669c0-2.338-0.562-3.657-1.988-3.657-1.979 0-2.802 1.422-2.802 3.657v6.669h-4.19v-13.767zM5.496 26.176v-13.768h4.19v13.768h-4.19zM10.286 7.918c0.008 0.359-0.056 0.715-0.188 1.049s-0.329 0.638-0.58 0.894c-0.251 0.256-0.551 0.46-0.881 0.599s-0.686 0.211-1.045 0.211-0.714-0.072-1.045-0.211c-0.331-0.139-0.63-0.343-0.881-0.599s-0.448-0.561-0.58-0.894c-0.132-0.334-0.196-0.69-0.188-1.049 0.016-0.704 0.306-1.374 0.81-1.867s1.18-0.768 1.884-0.768c0.704 0 1.381 0.276 1.884 0.768s0.794 1.163 0.81 1.867z"></path>
</symbol>
<symbol id="icon-telegram" viewBox="0 0 31 32">
<path d="M31.347 16c0 8.656-7.018 15.673-15.673 15.673s-15.673-7.018-15.673-15.673c0-8.656 7.018-15.673 15.673-15.673s15.673 7.018 15.673 15.673zM16.235 11.897c-1.524 0.633-4.571 1.946-9.14 3.937-0.742 0.295-1.131 0.584-1.166 0.866-0.060 0.478 0.538 0.666 1.351 0.921 0.111 0.035 0.226 0.071 0.343 0.11 0.801 0.26 1.877 0.564 2.436 0.576 0.508 0.010 1.075-0.199 1.701-0.627 4.268-2.883 6.472-4.339 6.61-4.37 0.098-0.022 0.234-0.051 0.325 0.031 0.091 0.081 0.082 0.235 0.073 0.277-0.060 0.252-2.403 2.432-3.618 3.561-0.379 0.351-0.647 0.601-0.701 0.658-0.123 0.127-0.248 0.248-0.368 0.364-0.745 0.716-1.301 1.254 0.031 2.132 0.64 0.422 1.152 0.771 1.663 1.118 0.558 0.38 1.114 0.759 1.835 1.232 0.183 0.12 0.358 0.244 0.529 0.366 0.649 0.464 1.233 0.879 1.954 0.814 0.418-0.039 0.852-0.432 1.071-1.607 0.519-2.777 1.54-8.79 1.776-11.269 0.014-0.206 0.006-0.413-0.026-0.617-0.019-0.165-0.099-0.316-0.225-0.425-0.187-0.153-0.477-0.185-0.607-0.183-0.589 0.010-1.493 0.325-5.846 2.136z"></path>
</symbol>
<symbol id="icon-instagram" viewBox="0 0 32 32">
<path d="M16.003 0c-4.346 0-4.893 0.018-6.599 0.096-1.402 0.029-2.733 0.3-3.963 0.772l0.080-0.027c-1.109 0.422-2.055 1.049-2.832 1.842l-0.001 0.001c-0.794 0.78-1.422 1.725-1.831 2.78l-0.018 0.054c-0.445 1.151-0.715 2.483-0.742 3.874l-0 0.012c-0.076 1.706-0.096 2.25-0.096 6.596s0.018 4.888 0.096 6.596c0.029 1.402 0.3 2.733 0.772 3.963l-0.027-0.080c0.424 1.109 1.051 2.054 1.843 2.832l0.001 0.001c0.779 0.795 1.724 1.423 2.78 1.831l0.054 0.018c1.151 0.444 2.483 0.714 3.873 0.742l0.012 0c1.706 0.078 2.25 0.096 6.596 0.096s4.888-0.018 6.596-0.096c1.403-0.029 2.734-0.298 3.966-0.769l-0.081 0.027c2.158-0.853 3.835-2.529 4.668-4.632l0.019-0.056c0.442-1.15 0.713-2.48 0.745-3.869l0-0.014c0.076-1.706 0.096-2.25 0.096-6.596s-0.021-4.891-0.096-6.596c-0.032-1.404-0.303-2.734-0.772-3.967l0.027 0.082c-0.424-1.109-1.052-2.054-1.845-2.832l-0.001-0.001c-0.778-0.795-1.724-1.423-2.78-1.826l-0.053-0.018c-1.155-0.444-2.49-0.713-3.885-0.739l-0.011-0c-1.708-0.078-2.25-0.096-6.596-0.096zM14.565 2.883h1.438c4.271 0 4.776 0.016 6.464 0.094 1.070 0.013 2.090 0.213 3.032 0.57l-0.061-0.020c0.721 0.271 1.335 0.679 1.837 1.197l0.001 0.001c0.518 0.504 0.926 1.118 1.186 1.804l0.011 0.034c0.337 0.882 0.537 1.901 0.549 2.966l0 0.005c0.078 1.685 0.094 2.193 0.094 6.464s-0.016 4.776-0.094 6.464c-0.012 1.069-0.213 2.088-0.57 3.029l0.020-0.061c-0.551 1.398-1.638 2.484-3.001 3.021l-0.036 0.012c-0.882 0.339-1.901 0.541-2.966 0.552l-0.005 0c-1.685 0.078-2.193 0.094-6.464 0.094s-4.779-0.016-6.466-0.094c-1.070-0.013-2.090-0.215-3.032-0.572l0.061 0.020c-0.722-0.27-1.337-0.677-1.84-1.194l-0.001-0.001c-0.518-0.503-0.925-1.118-1.184-1.804l-0.011-0.034c-0.337-0.882-0.539-1.901-0.552-2.966l-0-0.006c-0.076-1.688-0.091-2.193-0.091-6.466s0.016-4.776 0.091-6.464c0.012-1.070 0.213-2.090 0.572-3.032l-0.020 0.060c0.27-0.721 0.677-1.335 1.194-1.837l0.001-0.001c0.505-0.518 1.119-0.926 1.807-1.187l0.034-0.011c0.882-0.336 1.901-0.537 2.965-0.552l0.006-0c1.477-0.065 2.047-0.086 5.029-0.089zM24.542 5.539c-1.061 0-1.922 0.86-1.922 1.922s0.86 1.922 1.922 1.922c1.061 0 1.922-0.86 1.922-1.922 0-0.001 0-0.002 0-0.003v0c0 0 0 0 0 0 0-1.060-0.859-1.919-1.919-1.919-0.001 0-0.002 0-0.003 0h0zM16.003 7.784c-4.538 0-8.216 3.679-8.216 8.216s3.678 8.216 8.216 8.216c4.538 0 8.216-3.678 8.216-8.216v0c-0.002-4.537-3.679-8.215-8.216-8.216h-0zM16.003 10.667c0.002 0 0.005 0 0.008 0 2.946 0 5.333 2.388 5.333 5.333s-2.388 5.333-5.333 5.333c-2.946 0-5.333-2.388-5.333-5.333v0c0.006-2.938 2.387-5.318 5.325-5.323h0z"></path>
</symbol>
<symbol id="icon-webstudio" viewBox="0 0 230 32">
<path  d="M13.187 0.947h5.325l3.37 9.776 3.411-9.776h5.283l-5.075 13.437 3.744 9.402 8.362-22.922h6.24l-11.814 29.536h-4.95l-5.2-12.397-5.158 12.397h-4.95l-11.773-29.536h6.157l8.403 22.922 3.661-9.402-5.034-13.437zM54.763 30.816c-1.747 0-3.328-0.291-4.742-0.874-1.414-0.61-2.621-1.428-3.619-2.454-0.998-1.054-1.775-2.246-2.33-3.578-0.527-1.359-0.79-2.787-0.79-4.285 0-2.080 0.458-3.98 1.373-5.699 0.943-1.719 2.274-3.092 3.994-4.118 1.747-1.054 3.799-1.581 6.157-1.581 2.385 0 4.423 0.527 6.115 1.581 1.692 1.026 2.981 2.399 3.869 4.118 0.915 1.692 1.373 3.522 1.373 5.491 0 0.333-0.014 0.68-0.042 1.040-0.028 0.333-0.056 0.61-0.083 0.832h-16.848c0.111 1.109 0.43 2.080 0.957 2.912 0.555 0.832 1.248 1.47 2.080 1.914 0.86 0.416 1.775 0.624 2.746 0.624 1.109 0 2.149-0.264 3.12-0.79 0.998-0.555 1.678-1.276 2.038-2.163l4.784 1.331c-0.527 1.109-1.29 2.094-2.288 2.954-0.971 0.86-2.122 1.539-3.453 2.038-1.331 0.472-2.801 0.707-4.41 0.707zM49.064 17.754h11.398c-0.111-1.109-0.43-2.066-0.957-2.87-0.499-0.832-1.165-1.47-1.997-1.914-0.832-0.471-1.761-0.707-2.787-0.707-0.998 0-1.914 0.236-2.746 0.707-0.804 0.444-1.47 1.082-1.997 1.914-0.499 0.804-0.804 1.761-0.915 2.87zM83.202 30.816c-1.664 0-3.148-0.374-4.451-1.123s-2.33-1.775-3.078-3.078v3.786h-4.867v-30.368h5.574v12.397c0.777-1.303 1.789-2.33 3.037-3.078 1.276-0.749 2.76-1.123 4.451-1.123 1.414 0 2.704 0.305 3.869 0.915 1.165 0.582 2.163 1.401 2.995 2.454 0.86 1.054 1.512 2.26 1.955 3.619 0.472 1.359 0.707 2.815 0.707 4.368s-0.263 3.009-0.79 4.368c-0.499 1.359-1.206 2.565-2.122 3.619-0.915 1.026-1.997 1.83-3.245 2.413-1.22 0.555-2.565 0.832-4.035 0.832zM81.663 26.074c0.888 0 1.692-0.166 2.413-0.499 0.749-0.36 1.387-0.832 1.914-1.414 0.555-0.582 0.971-1.262 1.248-2.038 0.305-0.804 0.458-1.636 0.458-2.496 0-1.192-0.25-2.288-0.749-3.286-0.471-1.026-1.137-1.844-1.997-2.454-0.832-0.61-1.816-0.915-2.954-0.915-0.804 0-1.581 0.194-2.33 0.582-0.721 0.361-1.373 0.86-1.955 1.498-0.555 0.638-0.998 1.359-1.331 2.163v5.2c0.166 0.555 0.43 1.054 0.79 1.498 0.388 0.444 0.832 0.832 1.331 1.165 0.499 0.305 1.012 0.555 1.539 0.749 0.555 0.166 1.096 0.25 1.622 0.25z"></path>
<path  d="M116.557 8.602c-0.194-0.194-0.555-0.458-1.082-0.79-0.499-0.333-1.123-0.652-1.872-0.957-0.721-0.305-1.511-0.569-2.371-0.79-0.86-0.25-1.733-0.374-2.621-0.374-1.553 0-2.732 0.291-3.536 0.874-0.776 0.582-1.165 1.401-1.165 2.454 0 0.804 0.25 1.442 0.749 1.914s1.248 0.874 2.246 1.206c0.998 0.333 2.246 0.693 3.744 1.082 1.941 0.471 3.619 1.054 5.034 1.747 1.442 0.666 2.538 1.553 3.286 2.662 0.777 1.082 1.165 2.524 1.165 4.326 0 1.581-0.291 2.94-0.874 4.077-0.582 1.109-1.387 2.011-2.413 2.704s-2.191 1.206-3.494 1.539c-1.303 0.305-2.69 0.458-4.16 0.458s-2.94-0.152-4.41-0.458c-1.47-0.305-2.884-0.735-4.243-1.29-1.359-0.582-2.607-1.276-3.744-2.080l2.538-4.95c0.25 0.25 0.693 0.582 1.331 0.998 0.638 0.388 1.414 0.79 2.33 1.206 0.915 0.388 1.914 0.721 2.995 0.998s2.177 0.416 3.286 0.416c1.553 0 2.732-0.264 3.536-0.79s1.206-1.276 1.206-2.246c0-0.888-0.319-1.581-0.957-2.080s-1.525-0.929-2.662-1.29c-1.137-0.388-2.482-0.804-4.035-1.248-1.858-0.527-3.411-1.109-4.659-1.747-1.248-0.666-2.177-1.498-2.787-2.496s-0.915-2.246-0.915-3.744c0-2.025 0.472-3.716 1.414-5.075 0.971-1.387 2.274-2.427 3.91-3.12 1.636-0.721 3.453-1.082 5.45-1.082 1.387 0 2.69 0.153 3.91 0.458 1.248 0.305 2.413 0.707 3.494 1.206s2.052 1.040 2.912 1.622l-2.538 4.659zM137.755 29.277c-0.472 0.194-1.040 0.416-1.706 0.666s-1.387 0.444-2.163 0.582c-0.749 0.166-1.512 0.25-2.288 0.25-1.026 0-1.969-0.18-2.829-0.541s-1.553-0.929-2.080-1.706c-0.499-0.804-0.749-1.844-0.749-3.12v-12.522h-2.87v-4.285h2.87v-7.072h5.574v7.072h4.576v4.285h-4.576v10.65c0.028 0.749 0.236 1.29 0.624 1.622s0.874 0.499 1.456 0.499 1.151-0.097 1.706-0.291c0.555-0.194 0.998-0.36 1.331-0.499l1.123 4.41zM141.698 22.246v-13.645h5.574v12.438c0 1.664 0.305 2.926 0.915 3.786 0.61 0.832 1.511 1.248 2.704 1.248 0.721 0 1.428-0.139 2.122-0.416 0.721-0.305 1.373-0.749 1.955-1.331 0.61-0.582 1.123-1.317 1.539-2.205v-13.52h5.574v15.558c0 0.582 0.098 0.998 0.291 1.248 0.222 0.25 0.568 0.402 1.040 0.458v4.534c-0.555 0.083-1.026 0.139-1.414 0.166-0.36 0.056-0.693 0.083-0.998 0.083-0.998 0-1.816-0.222-2.454-0.666-0.61-0.472-0.971-1.109-1.082-1.914l-0.125-1.747c-0.971 1.47-2.219 2.593-3.744 3.37-1.525 0.749-3.203 1.123-5.034 1.123-2.246 0-3.952-0.721-5.117-2.163-1.165-1.47-1.747-3.605-1.747-6.406zM167.538 19.501c0-2.108 0.416-4.007 1.248-5.699 0.832-1.719 1.984-3.078 3.453-4.077 1.47-0.998 3.149-1.498 5.034-1.498 1.61 0 3.051 0.402 4.326 1.206 1.304 0.777 2.317 1.775 3.037 2.995v-12.397h5.574v24.128c0 0.582 0.098 0.998 0.291 1.248 0.195 0.25 0.528 0.402 0.998 0.458v4.534c-0.97 0.194-1.76 0.291-2.371 0.291-0.998 0-1.83-0.25-2.496-0.749-0.637-0.499-0.998-1.151-1.082-1.955l-0.083-1.373c-0.803 1.359-1.899 2.399-3.286 3.12-1.358 0.721-2.787 1.082-4.285 1.082s-2.883-0.291-4.16-0.874c-1.248-0.582-2.342-1.387-3.286-2.413-0.915-1.026-1.635-2.219-2.163-3.578-0.499-1.387-0.749-2.87-0.749-4.451zM184.635 22.413v-5.2c-0.277-0.804-0.72-1.525-1.331-2.163-0.61-0.638-1.29-1.137-2.038-1.498-0.749-0.388-1.498-0.582-2.246-0.582-0.859 0-1.635 0.18-2.33 0.541-0.693 0.361-1.302 0.846-1.83 1.456-0.499 0.61-0.886 1.317-1.165 2.122-0.25 0.804-0.374 1.65-0.374 2.538s0.139 1.733 0.416 2.538c0.306 0.776 0.736 1.456 1.29 2.038 0.555 0.582 1.194 1.040 1.914 1.373 0.749 0.333 1.554 0.499 2.413 0.499 0.528 0 1.054-0.083 1.581-0.25 0.555-0.194 1.069-0.444 1.539-0.749 0.499-0.333 0.93-0.721 1.29-1.165 0.389-0.472 0.68-0.971 0.874-1.498zM196.93 30.4v-21.798h5.574v21.798h-5.574zM196.93 5.565v-5.533h5.574v5.533h-5.574zM218.848 30.816c-1.774 0-3.37-0.291-4.784-0.874-1.414-0.61-2.621-1.442-3.619-2.496-0.971-1.054-1.72-2.26-2.246-3.619s-0.79-2.787-0.79-4.285c0-1.525 0.264-2.968 0.79-4.326s1.275-2.565 2.246-3.619c0.998-1.054 2.205-1.872 3.619-2.454 1.414-0.61 3.010-0.915 4.784-0.915s3.355 0.305 4.742 0.915c1.414 0.582 2.621 1.401 3.619 2.454s1.747 2.26 2.246 3.619c0.526 1.359 0.79 2.801 0.79 4.326 0 1.498-0.264 2.926-0.79 4.285-0.499 1.359-1.248 2.565-2.246 3.619-0.971 1.054-2.163 1.886-3.578 2.496-1.414 0.582-3.010 0.874-4.784 0.874zM213.149 19.542c0 1.276 0.25 2.413 0.749 3.411 0.499 0.971 1.179 1.733 2.038 2.288s1.83 0.832 2.912 0.832c1.054 0 2.011-0.277 2.87-0.832 0.859-0.582 1.539-1.359 2.038-2.33 0.526-0.998 0.79-2.136 0.79-3.411 0-1.248-0.264-2.371-0.79-3.37-0.499-0.998-1.179-1.775-2.038-2.33s-1.816-0.832-2.87-0.832c-1.082 0-2.053 0.291-2.912 0.874-0.859 0.555-1.539 1.331-2.038 2.33-0.499 0.971-0.749 2.094-0.749 3.37z"></path>
</symbol>
<symbol id="icon-html5" viewBox="0 0 32 32">
<path d="M1.892 0l2.567 28.801 11.524 3.199 11.554-3.204 2.572-28.796h-28.216zM24.52 9.42h-13.517l0.322 3.617h12.874l-0.97 10.844-7.245 2.008-7.237-2.008-0.495-5.547h3.547l0.252 2.82 3.933 1.060 0.009-0.002 3.935-1.062 0.408-4.58h-12.242l-0.953-10.681h17.694l-0.316 3.532z"></path>
</symbol>
<symbol id="icon-css3" viewBox="0 0 32 32">
<path d="M4.762 1.516l-1.074 5.373h21.867l-0.684 3.47h-21.881l-1.059 5.372h21.865l-1.219 6.127-8.813 2.919-7.638-2.919 0.523-2.658h-5.372l-1.278 6.448 12.632 4.834 14.563-4.834 4.805-24.133z"></path>
</symbol>
<symbol id="icon-js" viewBox="0 0 32 32">
<path d="M28.975 1.488c-0.122-0.132-0.292-0.208-0.472-0.208h-25.006c-0.18 0-0.351 0.076-0.472 0.208s-0.181 0.31-0.165 0.489l2.253 25.233c0.024 0.264 0.207 0.486 0.462 0.559l10.246 2.927c0.057 0.016 0.116 0.024 0.175 0.024s0.118-0.008 0.175-0.024l10.255-2.927c0.255-0.073 0.438-0.295 0.462-0.559l2.252-25.233c0.016-0.179-0.044-0.356-0.165-0.489zM7.68 18.563l4.48 1.243v-12.765h2.56v16.64l-7.040-1.953v-3.165zM24.355 14.080l-0.675 7.84-6.4 1.76v-2.945l4.32-1.187 0.16-2.4-4.48 0.772v-10.88h7.68l-0.221 2.56h-4.899v5.12l4.515-0.64z"></path>
</symbol>
<symbol id="icon-figma" viewBox="0 0 24 24">
<path d="M13 12.5c0-0.691 0.279-1.314 0.732-1.768s1.077-0.732 1.768-0.732 1.314 0.279 1.768 0.732 0.732 1.077 0.732 1.768-0.279 1.314-0.732 1.768-1.077 0.732-1.768 0.732-1.314-0.279-1.768-0.732-0.732-1.077-0.732-1.768zM8.5 8c-0.691 0-1.314-0.279-1.768-0.732s-0.732-1.077-0.732-1.768 0.279-1.314 0.732-1.768 1.077-0.732 1.768-0.732h2.5v5zM13 8v-5h2.5c0.691 0 1.314 0.279 1.768 0.732s0.732 1.077 0.732 1.768-0.279 1.314-0.732 1.768-1.077 0.732-1.768 0.732zM11 17v2.5c0 0.691-0.279 1.314-0.732 1.768s-1.077 0.732-1.768 0.732-1.314-0.279-1.768-0.732-0.732-1.077-0.732-1.768 0.279-1.314 0.732-1.768 1.077-0.732 1.768-0.732zM4 12.5c0 1.242 0.505 2.369 1.318 3.182 0.112 0.112 0.23 0.218 0.353 0.318-0.123 0.1-0.241 0.206-0.353 0.318-0.813 0.813-1.318 1.94-1.318 3.182s0.505 2.369 1.318 3.182 1.94 1.318 3.182 1.318 2.369-0.505 3.182-1.318 1.318-1.94 1.318-3.182v-3.258c0.715 0.478 1.575 0.758 2.5 0.758 1.242 0 2.369-0.505 3.182-1.318s1.318-1.94 1.318-3.182-0.505-2.369-1.318-3.182c-0.112-0.112-0.23-0.218-0.353-0.318 0.123-0.1 0.241-0.206 0.353-0.318 0.813-0.813 1.318-1.94 1.318-3.182s-0.505-2.369-1.318-3.182-1.94-1.318-3.182-1.318h-7c-1.242 0-2.369 0.505-3.182 1.318s-1.318 1.94-1.318 3.182 0.505 2.369 1.318 3.182c0.112 0.112 0.23 0.218 0.353 0.318-0.123 0.1-0.241 0.206-0.353 0.318-0.813 0.813-1.318 1.94-1.318 3.182zM6 12.5c0-0.691 0.279-1.314 0.732-1.768s1.077-0.732 1.768-0.732h2.5v5h-2.5c-0.691 0-1.314-0.279-1.768-0.732s-0.732-1.077-0.732-1.768z"></path>
</symbol>
<symbol id="icon-sass" viewBox="0 0 32 32">
<path d="M27.533 17.796c0.039-0.001 0.085-0.002 0.132-0.002 0.834 0 1.623 0.194 2.323 0.54l-0.031-0.014c0.638 0.311 1.162 0.771 1.541 1.335l0.009 0.014c0.299 0.436 0.477 0.975 0.477 1.555 0 0.042-0.001 0.084-0.003 0.125v-0.006c-0.031 0.579-0.294 1.090-0.698 1.448l-0.002 0.002c-0.221 0.217-0.488 0.387-0.785 0.495l-0.015 0.005q-0.25 0.050-0.275-0.075t0.225-0.275c0.452-0.274 0.779-0.716 0.898-1.237l0.003-0.013c0.003-0.042 0.005-0.091 0.005-0.141 0-0.311-0.074-0.605-0.205-0.865l0.005 0.011c-0.217-0.453-0.541-0.825-0.94-1.094l-0.010-0.006c-0.597-0.384-1.313-0.636-2.083-0.699l-0.016-0.001c-0.262-0.039-0.564-0.061-0.872-0.061-0.801 0-1.566 0.151-2.27 0.426l0.042-0.015c0.145 0.339 0.236 0.732 0.249 1.144v0.005c-0.016 0.845-0.47 1.58-1.145 1.99l-0.011 0.006c-0.31 0.22-0.664 0.413-1.041 0.563l-0.035 0.012c-0.229 0.112-0.498 0.177-0.782 0.177-0.033 0-0.065-0.001-0.097-0.003h0.005q-0.949-0.199-0.45-1.65c0.145-0.421 0.348-0.786 0.605-1.107l-0.006 0.007c0.329-0.43 0.69-0.807 1.089-1.141l0.011-0.009-0.098-0.146c-0.183-0.312-0.351-0.675-0.486-1.054l-0.014-0.046q-0.15-0.5-0.25-0.949l-0.050-0.35-0.5 0.949q-0.65 1.2-1.25 2.099l-0.15 0.25c0.168 0.408 0.292 0.881 0.348 1.375l0.002 0.025c0.004 0.047 0.006 0.103 0.006 0.159 0 0.758-0.374 1.428-0.948 1.837l-0.007 0.005c-0.274 0.169-0.601 0.344-0.94 0.5l-0.060 0.025c-0.353 0.153-0.762 0.253-1.191 0.275h-0.009c-0.033 0.002-0.072 0.004-0.111 0.004-0.25 0-0.487-0.057-0.699-0.158l0.010 0.004c-0.127-0.109-0.207-0.269-0.207-0.448 0-0.091 0.021-0.178 0.058-0.255l-0.002 0.004c0.4-0.561 0.794-1.049 1.213-1.515l-0.013 0.015 1.1-1.399-0.199-0.45c-0.16-0.294-0.313-0.641-0.436-1.001l-0.014-0.048q-0.15-0.5-0.25-0.949l-0.050-0.35-0.5 1.2q-0.599 1.399-1.1 2.399-0.747 1.5-1.25 2.3l-0.1 0.15q-0.599 0.949-1.15 0.949t-0.747-0.7c-0.096-0.344-0.152-0.739-0.152-1.147 0-0.036 0-0.072 0.001-0.108v0.005l0.1-0.7v0.050q-0.4 0.949-0.8 1.749c-0.177 0.346-0.359 0.641-0.563 0.919l0.013-0.019c-0.206 0.216-0.496 0.35-0.817 0.35-0.003 0-0.005 0-0.008 0-0.021 0.002-0.045 0.002-0.069 0.002-0.253 0-0.483-0.096-0.657-0.253l0.001 0.001c-0.349-0.358-0.608-0.805-0.742-1.304l-0.005-0.021c-0.164-0.455-0.258-0.981-0.258-1.529 0-0.071 0.002-0.141 0.005-0.21v0.010c0.079-0.796 0.238-1.525 0.471-2.22l-0.021 0.071-1.799 1.050v0.050c0.261 0.542 0.414 1.178 0.414 1.85 0 0.123-0.005 0.245-0.015 0.365l0.001-0.016c-0.053 1.030-0.382 1.973-0.913 2.77l0.013-0.020c-0.557 0.884-1.36 1.567-2.314 1.962l-0.033 0.012c-0.537 0.241-1.165 0.382-1.825 0.382-0.418 0-0.824-0.056-1.208-0.162l0.032 0.007c-0.318-0.107-0.578-0.319-0.743-0.593l-0.003-0.006c-0.233-0.338-0.38-0.751-0.403-1.196v-0.006c-0.011-0.101-0.017-0.218-0.017-0.337 0-0.513 0.117-0.999 0.326-1.432l-0.009 0.020c0.574-0.979 1.368-1.772 2.316-2.33l0.030-0.016c0.671-0.465 1.442-0.916 2.247-1.309l0.106-0.047 0.25-0.15q-0.45-0.35-1.65-1.2c-1.069-0.716-1.998-1.439-2.874-2.221l0.025 0.022c-0.847-0.729-1.464-1.703-1.741-2.812l-0.008-0.038c-0.026-0.154-0.041-0.331-0.041-0.511 0-0.564 0.145-1.094 0.399-1.555l-0.008 0.017c0.56-1.204 1.336-2.219 2.288-3.035l0.012-0.010c1.030-0.973 2.196-1.82 3.462-2.506l0.087-0.043c1.131-0.653 2.452-1.26 3.829-1.747l0.17-0.052c1.279-0.468 2.756-0.742 4.296-0.747h0.002c0.070-0.002 0.153-0.004 0.236-0.004 1.241 0 2.415 0.287 3.459 0.798l-0.046-0.021c0.9 0.41 1.574 1.182 1.844 2.126l0.006 0.024c0.083 0.322 0.13 0.692 0.13 1.073 0 0.632-0.131 1.234-0.366 1.78l0.011-0.029c-0.428 1.037-1.037 1.92-1.797 2.647l-0.003 0.003c-0.77 0.763-1.693 1.373-2.718 1.78l-0.055 0.019c-1.074 0.461-2.321 0.751-3.63 0.799l-0.019 0.001c-0.192 0.022-0.414 0.034-0.639 0.034-0.592 0-1.163-0.085-1.703-0.244l0.043 0.011c-0.483-0.154-0.9-0.393-1.254-0.703l0.004 0.003c-0.248-0.202-0.45-0.451-0.594-0.734l-0.006-0.013q-0.15-0.4-0.025-0.475t0.175-0.025l0.25 0.25c0.279 0.259 0.612 0.463 0.98 0.593l0.020 0.006c0.506 0.176 1.090 0.278 1.697 0.278 0.195 0 0.387-0.010 0.576-0.031l-0.023 0.002c1.618-0.191 3.077-0.743 4.336-1.573l-0.037 0.023c1.064-0.633 1.925-1.503 2.531-2.54l0.018-0.034c0.301-0.442 0.481-0.988 0.481-1.576 0-0.361-0.068-0.707-0.192-1.025l0.007 0.019c-0.374-0.591-0.979-1.007-1.685-1.122l-0.014-0.002c-0.548-0.135-1.178-0.213-1.825-0.213-0.521 0-1.031 0.050-1.524 0.146l0.050-0.008c-1.687 0.304-3.195 0.825-4.586 1.541l0.091-0.043q-6.148 3.1-6.349 6.349v0.049c0 0.873 0.343 1.666 0.902 2.252l-0.001-0.001c0.637 0.708 1.341 1.333 2.11 1.873l0.039 0.026c0.701 0.524 1.321 1.065 1.898 1.649l0.001 0.002 0.1 0.1 3.2-1.749c0.365-0.528 0.804-0.974 1.308-1.334l0.016-0.011c0.4-0.336 0.908-0.555 1.465-0.599l0.009-0.001c0.020-0.002 0.043-0.002 0.067-0.002 0.373 0 0.693 0.225 0.831 0.547l0.002 0.006c0.105 0.235 0.166 0.51 0.166 0.799 0 0.088-0.006 0.175-0.017 0.261l0.001-0.010-0.097 0.493 0.15-0.1c0.104-0.079 0.235-0.126 0.377-0.126 0.090 0 0.175 0.019 0.252 0.053l-0.004-0.002c0.192 0.050 0.331 0.222 0.331 0.426 0 0.035-0.004 0.069-0.012 0.102l0.001-0.003-0.15 0.55q-0.45 1.799-0.599 2.599c-0.050 0.173-0.078 0.372-0.078 0.578 0 0.043 0.001 0.085 0.004 0.127v-0.006q0.025 0.3 0.075 0.3t0.199-0.3l0.15-0.35q0.050 0 0 0.050l0.55-1.15q1.95-4.298 2.099-4.8l0.3-0.949q0.050-0.1 0.4-0.199c0.237-0.064 0.508-0.101 0.788-0.101 0.023 0 0.046 0 0.068 0.001h-0.003q0.7 0 0.7 0.35l-0.050 0.25c-0.112 0.308-0.223 0.693-0.309 1.087l-0.011 0.063c-0.020 0.129-0.032 0.277-0.032 0.429 0 0.202 0.020 0.399 0.059 0.59l-0.003-0.019 0.050 0.199c0.102 0.417 0.257 0.783 0.46 1.117l-0.010-0.017q0.599-0.999 1.15-2.049c0.29-0.483 0.56-1.043 0.777-1.629l0.023-0.070c0.075-0.377 0.161-0.695 0.266-1.005l-0.016 0.056q0.050-0.15 0.427-0.225c0.238-0.048 0.511-0.075 0.79-0.075h0.034q0.7 0 0.747 0.35l-0.1 0.199c-0.119 0.336-0.223 0.74-0.293 1.155l-0.006 0.045c-0.009 0.097-0.015 0.209-0.015 0.323 0 0.239 0.024 0.473 0.069 0.699l-0.004-0.023v0.199c0.115 0.436 0.286 0.819 0.51 1.166l-0.010-0.016 0.15 0.35c0.835-0.41 1.817-0.65 2.855-0.65h0.037zM6.094 25.049c0.695-0.718 1.124-1.698 1.124-2.778 0-0.417-0.064-0.819-0.182-1.197l0.008 0.028-0.8 0.5c-0.816 0.465-1.522 0.984-2.161 1.574l0.008-0.007c-0.485 0.446-0.843 1.023-1.019 1.674l-0.006 0.025q-0.225 0.925 0.225 1.2c0.183 0.084 0.398 0.133 0.623 0.133 0.246 0 0.479-0.058 0.684-0.162l-0.009 0.004c0.594-0.216 1.097-0.559 1.497-0.998l0.003-0.003zM12.791 20.445q0.25-0.65 0.55-1.55 0.4-1.2 0.275-1.399t-0.475-0.050c-0.278 0.135-0.511 0.32-0.697 0.547l-0.003 0.004c-0.208 0.263-0.406 0.557-0.582 0.866l-0.018 0.034c-0.202 0.331-0.373 0.712-0.492 1.116l-0.009 0.034c-0.193 0.523-0.305 1.128-0.305 1.758 0 0.085 0.002 0.169 0.006 0.253v-0.012q0.050 0.999 0.32 1.075t0.625-0.725c0.229-0.413 0.433-0.893 0.585-1.396l0.014-0.054q0.149-0.354 0.204-0.501zM18.337 23.095c0.693-0.311 1.181-0.966 1.249-1.741l0.001-0.008v-0.050l-0.55 0.7-0.999 1.1c-0.015 0.012-0.025 0.030-0.025 0.050s0.010 0.038 0.024 0.050q0.048 0.049 0.3-0.1zM22.636 22.145c0.756-0.216 1.3-0.901 1.3-1.712 0-0.013 0-0.026 0-0.039v0.002c-0.010-0.2-0.046-0.388-0.105-0.566l0.004 0.015c-0.389 0.346-0.708 0.76-0.939 1.227l-0.011 0.023q-0.451 0.899-0.252 1.048z"></path>
</symbol>
<symbol id="icon-eubank" viewBox="0 0 33 32">
<path d="M13.049 10.563c0.699 0.233 1.32 0.388 2.019 0.621 0.777 0.233 0.699 0.233 0.854 1.010 0.155 0.699 0.311 1.32 0.388 2.019v0c0.699-3.107 0.233-2.641 3.262-3.573-2.097 0.311-4.349 0.311-6.524-0.078z"></path>
<path d="M21.67 13.515l-0.932-1.864c0.078 1.243 0.777 2.796-0.699 3.107l-2.718 0.932c1.165-0.078 2.252-0.388 2.718-0.155 0.544 0.311 0.233 0.854 0.078 1.243l-2.408 5.515c1.553-2.796 2.874-4.893 4.738-6.757 0.777-0.699 1.709-1.243 2.718-2.019-0.854 0.155-1.010 0.233-1.864 0.388-0.466 0.233-1.398 0.155-1.631-0.388z"></path>
<path d="M9.786 10.252c0.777 0.078 1.476 0.155 2.252 0.155-1.476-0.311-2.874-0.699-3.883-1.398 0.078 0.233 0.233 0.466 0.311 0.699 0.155 0.233 0.155 0.233 0 0.466-0.311 0.621-0.699 1.243-1.010 1.864l1.553-1.553c0.311-0.311 0.311-0.311 0.777-0.233z"></path>
<path d="M12.893 15.612c0.466-0.311 1.553 0 2.718 0.155l-2.718-1.010c-1.476-0.311-0.777-1.864-0.699-3.107l-0.932 1.864c-0.233 0.544-1.165 0.621-1.709 0.544-0.854-0.155-1.010-0.233-1.864-0.388 1.010 0.777 1.942 1.243 2.718 2.019 1.942 1.786 3.262 3.961 4.738 6.757l-2.408-5.515c-0.078-0.466-0.466-1.010 0.155-1.32z"></path>
<path d="M24.311 9.631c0.078-0.155 0.155-0.388 0.311-0.544-1.087 0.777-2.485 1.087-3.884 1.398 0.699-0.078 1.087-0.078 1.786-0.155 0.466-0.078 0.854-0.078 1.165 0.233l1.631 1.631c-0.311-0.621-0.621-1.165-0.932-1.786-0.311-0.466-0.311-0.388-0.078-0.777z"></path>
<path d="M16.388 0c-5.126 0-15.922 0.621-16.388 7.612 0.388 8.777 6.68 19.573 14.369 24 0.699 0.233 1.398 0.388 2.097 0.388s1.398-0.155 2.097-0.388c7.689-4.427 13.981-15.223 14.369-24-0.544-7.146-11.262-7.612-16.544-7.612zM26.019 14.136c-3.417 3.806-6.136 6.757-9.631 10.485v0.078h-0.078l-9.709-10.641c-0.777-0.854-1.476-1.942-0.699-2.874s1.32-1.631 2.097-2.563l5.204-1.32h6.369l5.126 1.32 2.097 2.563c1.010 1.165 0.311 1.786-0.777 2.951z"></path>
</symbol>
<symbol id="icon-react" viewBox="0 0 32 32">
<path d="M16 13.148c-1.575 0-2.852 1.277-2.852 2.852s1.277 2.852 2.852 2.852v0c1.575 0 2.852-1.277 2.852-2.852s-1.277-2.852-2.852-2.852v0zM8.011 21.673l-0.629-0.16c-4.691-1.185-7.381-3.197-7.381-5.519s2.691-4.333 7.381-5.519l0.629-0.159 0.177 0.624c0.545 1.86 1.163 3.443 1.899 4.957l-0.082-0.186 0.135 0.284-0.135 0.284c-0.656 1.329-1.275 2.912-1.761 4.551l-0.056 0.22zM7.089 11.933c-3.565 1.001-5.753 2.533-5.753 4.061 0 1.527 2.188 3.059 5.753 4.061 0.512-1.62 1.046-2.965 1.662-4.263l-0.086 0.202c-0.531-1.098-1.066-2.443-1.511-3.828l-0.065-0.234zM23.989 21.673l-0.177-0.625c-0.544-1.859-1.162-3.441-1.9-4.954l0.081 0.184-0.135-0.284 0.135-0.284c0.656-1.329 1.275-2.911 1.762-4.55l0.056-0.221 0.177-0.624 0.631 0.159c4.689 1.185 7.38 3.197 7.38 5.52s-2.691 4.333-7.38 5.519zM23.335 15.995c0.64 1.385 1.169 2.747 1.576 4.061 3.567-1.003 5.753-2.535 5.753-4.061 0-1.528-2.188-3.059-5.753-4.061-0.511 1.619-1.045 2.963-1.662 4.262l0.086-0.2zM7.080 11.927l-0.177-0.623c-1.319-4.648-0.919-7.979 1.097-9.141 1.977-1.141 5.152 0.207 8.479 3.621l0.453 0.465-0.453 0.465c-1.146 1.19-2.207 2.482-3.162 3.853l-0.068 0.103-0.18 0.257-0.313 0.027c-1.875 0.151-3.596 0.439-5.264 0.86l0.218-0.047zM9.608 3.087c-0.357 0-0.673 0.077-0.94 0.231-1.325 0.764-1.56 3.42-0.647 7.004 1.21-0.285 2.681-0.521 4.18-0.658l0.131-0.010c0.894-1.264 1.792-2.37 2.756-3.414l-0.020 0.022c-2.080-2.025-4.049-3.175-5.46-3.175zM22.393 30.236c-0.001 0-0.001 0 0 0-1.9 0-4.34-1.431-6.872-4.031l-0.453-0.465 0.453-0.465c1.146-1.19 2.206-2.482 3.16-3.854l0.068-0.103 0.18-0.257 0.312-0.027c1.875-0.15 3.597-0.438 5.267-0.858l-0.218 0.046 0.629-0.159 0.179 0.624c1.316 4.645 0.917 7.977-1.099 9.139-0.449 0.259-0.988 0.411-1.562 0.411-0.016 0-0.031-0-0.047-0l0.002 0zM16.932 25.728c2.080 2.025 4.049 3.175 5.46 3.175h0.001c0.356 0 0.673-0.077 0.939-0.231 1.325-0.764 1.561-3.421 0.647-7.005-1.212 0.286-2.682 0.522-4.182 0.658l-0.13 0.010c-0.893 1.265-1.791 2.371-2.755 3.416l0.020-0.022zM24.92 11.927l-0.629-0.159c-1.453-0.376-3.175-0.664-4.939-0.806l-0.111-0.007-0.312-0.027-0.18-0.257c-1.021-1.474-2.082-2.766-3.237-3.966l0.009 0.010-0.453-0.465 0.453-0.465c3.325-3.413 6.499-4.761 8.479-3.621 2.016 1.163 2.416 4.493 1.099 9.14zM19.667 9.653c1.523 0.139 2.969 0.364 4.312 0.668 0.915-3.584 0.679-6.24-0.647-7.004-1.317-0.761-3.793 0.405-6.4 2.944 0.943 1.022 1.841 2.128 2.666 3.289l0.069 0.103zM9.608 30.236c-0.014 0-0.030 0-0.046 0-0.574 0-1.113-0.152-1.577-0.419l0.015 0.008c-2.016-1.161-2.416-4.492-1.097-9.139l0.176-0.624 0.629 0.159c1.54 0.388 3.239 0.661 5.047 0.812l0.313 0.027 0.179 0.257c1.022 1.475 2.083 2.767 3.239 3.967l-0.010-0.010 0.453 0.465-0.453 0.465c-2.531 2.6-4.971 4.031-6.868 4.031zM8.021 21.667c-0.915 3.584-0.679 6.241 0.647 7.005 1.316 0.751 3.791-0.407 6.4-2.944-0.943-1.022-1.841-2.129-2.667-3.29l-0.069-0.103c-1.629-0.146-3.099-0.382-4.534-0.711l0.224 0.043zM16 22.504c-1.097 0-2.225-0.048-3.355-0.141l-0.313-0.027-0.18-0.257c-0.544-0.768-1.139-1.691-1.697-2.639l-0.103-0.19c-0.452-0.758-0.971-1.732-1.45-2.728l-0.105-0.243-0.133-0.284 0.133-0.284c0.584-1.239 1.102-2.212 1.658-3.161l-0.103 0.191c0.552-0.955 1.159-1.907 1.8-2.829l0.18-0.257 0.313-0.027c1.005-0.090 2.174-0.142 3.355-0.142s2.35 0.052 3.505 0.153l-0.15-0.011 0.312 0.027 0.179 0.257c1.177 1.666 2.294 3.567 3.252 5.56l0.104 0.24 0.135 0.284-0.135 0.284c-1.058 2.232-2.176 4.133-3.439 5.925l0.083-0.125-0.179 0.257-0.312 0.027c-1.129 0.093-2.259 0.141-3.356 0.141zM13.071 21.059c1.973 0.148 3.885 0.148 5.86 0 1.004-1.445 1.978-3.104 2.827-4.836l0.101-0.228c-0.947-1.958-1.922-3.617-3.012-5.19l0.083 0.126c-0.877-0.071-1.898-0.111-2.929-0.111s-2.052 0.040-3.063 0.119l0.134-0.008c-1.008 1.447-1.983 3.106-2.83 4.84l-0.099 0.224c0.951 1.96 1.926 3.619 3.014 5.193l-0.085-0.13z"></path>
</symbol>
</defs>
</svg>
